# xmcd CD database file
#
# Track frame offsets:
#	150
#	14995
#	30025
#	45970
#	64520
#	80115
#	98190
#	113585
#	133087
#	149195
#	172062
#	198420
#	213645
#	225820
#	248307
#
# Disc length: 3554 seconds
#
# Revision: 0
# Processed by: cddbd v1.4PL0 Copyright (c) Steve Scherf et al.
# Submitted via: Feurio! 1.66 - http://www.feurio.com
#
DISCID=c80de00f
DTITLE=Lazy Poker - Best Of
DYEAR=1900
DGENRE=
TTITLE0=Red Hot Lover
TTITLE1=I Can't Lose
TTITLE2=Ruby Lee
TTITLE3=One Way Ticket
TTITLE4=So Lazy
TTITLE5=I'd Rather Go Down
TTITLE6=Neon People
TTITLE7=Blue Road
TTITLE8=Backstage Fever
TTITLE9=A Little Bit Of Something
TTITLE10=Stuck To The Blues
TTITLE11=Soul Food
TTITLE12=Paranoia Lover
TTITLE13=Cut Me Off
TTITLE14=Bad Man
EXTD=
EXTT0=
EXTT1=
EXTT2=
EXTT3=
EXTT4=
EXTT5=
EXTT6=
EXTT7=
EXTT8=
EXTT9=
EXTT10=
EXTT11=
EXTT12=
EXTT13=
EXTT14=
PLAYORDER=
